<?xml version="1.0" encoding="UTF-8" standalone="no"?>
<svg
   height="25px"
   version="1.1"
   viewBox="0 0 25 25"
   width="25px"
   id="svg11"
   sodipodi:docname="hamburger.svg"
   inkscape:version="1.1.1 (3bf5ae0d25, 2021-09-20)"
   xmlns:inkscape="http://www.inkscape.org/namespaces/inkscape"
   xmlns:sodipodi="http://sodipodi.sourceforge.net/DTD/sodipodi-0.dtd"
   xmlns="http://www.w3.org/2000/svg"
   xmlns:svg="http://www.w3.org/2000/svg">
  <sodipodi:namedview
     id="namedview13"
     pagecolor="#ffffff"
     bordercolor="#666666"
     borderopacity="1.0"
     inkscape:pageshadow="2"
     inkscape:pageopacity="0.0"
     inkscape:pagecheckerboard="0"
     showgrid="false"
     inkscape:zoom="34.88"
     inkscape:cx="12.514335"
     inkscape:cy="12.342317"
     inkscape:window-width="1920"
     inkscape:window-height="1057"
     inkscape:window-x="-8"
     inkscape:window-y="-8"
     inkscape:window-maximized="1"
     inkscape:current-layer="svg11"
     showguides="false" />
  <title
     id="title2" />
  <desc
     id="desc4" />
  <defs
     id="defs6" />
  <g
     fill="none"
     fill-rule="evenodd"
     id="TabBar-Icons"
     stroke="none"
     stroke-width="1"
     transform="matrix(1,0,0,1.0099863,0,4.2300274)">
    <g
       fill="#000000"
       id="Hamburger-Round">
      <path
         id="Hamburger"
         d="M 2.0039062,2 C 0.89007493,2 0,2.8954305 0,4 0,5.1122704 0.89735166,6 2.0039062,6 H 22.996094 C 24.109925,6 25,5.1045695 25,4 25,2.8877296 24.102649,2 22.996094,2 Z m 0,8 C 0.89007493,10 0,10.89543 0,12 c 0,1.11227 0.89735166,2 2.0039062,2 H 22.996094 C 24.109925,14 25,13.10457 25,12 25,10.88773 24.102649,10 22.996094,10 Z" />
    </g>
  </g>
</svg>
